<svg width="19" height="16" viewBox="0 0 19 16" fill="none" xmlns="http://www.w3.org/2000/svg">
<path d="M4.29443 4.77615L3.21828 5.8523C4.27769 2.3809 7.95064 0.425637 11.422 1.48504C12.745 1.88879 13.9068 2.69967 14.742 3.8022L15.6944 3.08058C13.1077 -0.339101 8.23855 -1.01442 4.81883 1.5723C3.40141 2.64441 2.39477 4.17037 1.96696 5.89535L0.845374 4.77615L0 5.62093L2.5708 8.19173L5.1416 5.62093L4.29443 4.77615Z" fill="white"/>
<path d="M16.4293 7.3418L13.8585 9.9126L14.7039 10.758L15.7926 9.66987C14.7425 13.1468 11.0726 15.1142 7.59565 14.0641C6.21269 13.6464 5.00576 12.785 4.16125 11.6129L3.19092 12.3112C4.39011 13.9878 6.20963 15.1155 8.24463 15.4434C8.66171 15.5111 9.08358 15.5453 9.50612 15.5456C13.0753 15.544 16.1823 13.1062 17.0332 9.63997L18.1524 10.758L19.0001 9.9126L16.4293 7.3418ZM16.3994 9.06423L16.4299 9.03374L16.4742 9.07858L16.3994 9.06423Z" fill="white"/>
</svg>
