<svg width="28" height="29" viewBox="0 0 28 29" fill="none" xmlns="http://www.w3.org/2000/svg">
<path d="M11.4836 17.6821C13.3601 17.344 14.9151 16.0902 15.643 14.3281C16.3709 12.566 16.1541 10.5803 15.0633 9.01657L12.4349 5.24814C11.9989 4.62293 11.3861 4.16441 10.6633 3.92228C9.94033 3.68007 9.17516 3.67715 8.45007 3.91352C7.72534 4.15042 7.10925 4.60454 6.66838 5.22674C6.22751 5.84893 6.00364 6.58097 6.0207 7.34344L6.02204 7.39459C6.05078 9.30729 5.27786 11.1601 3.89662 12.4855C3.54037 12.8274 3.26465 13.2316 3.08015 13.6783C2.97983 13.9211 2.9065 14.1768 2.86166 14.4416C2.73474 15.1935 2.85072 15.95 3.19708 16.6296C3.54341 17.3087 4.08766 17.8469 4.77088 18.1857C5.4541 18.5246 6.2117 18.6322 6.96216 18.4971L11.4836 17.6821Z" fill="#FFBD54"/>
<path d="M15.7596 7.34409C15.7399 8.13401 16.0753 8.87887 16.7042 9.44145C17.3026 9.97689 18.1014 10.2832 18.9536 10.304C19.8054 10.3244 20.6179 10.0571 21.2419 9.55153C21.8972 9.02036 22.2687 8.29286 22.2875 7.50386C22.3266 5.91708 20.8941 4.58971 19.0932 4.54476C17.659 4.51071 16.4186 5.30057 15.954 6.42526C15.8354 6.71244 15.7674 7.02148 15.7596 7.34409Z" fill="#FFBD54"/>
<path d="M16.7237 12.9478C16.0166 14.6596 17.0279 16.7077 18.9782 17.5134C20.929 18.3192 23.0913 17.5821 23.7984 15.8703C24.5055 14.1586 23.4937 12.1105 21.5429 11.3047C19.5926 10.4991 17.4307 11.2362 16.7237 12.9478Z" fill="#FFBD54"/>
<path d="M13.6399 17.9503L13.6398 17.9504C13.4437 18.1776 13.2909 18.429 13.1804 18.6965C12.6647 19.9449 13.0708 21.5369 14.2754 22.5779C14.9688 23.1773 15.826 23.5108 16.6889 23.517C17.5923 23.5235 18.3938 23.1753 18.946 22.5362C19.4983 21.897 19.7266 21.0533 19.5891 20.1605C19.4578 19.3076 19.0035 18.508 18.31 17.9089C16.8471 16.6449 14.7521 16.6635 13.6399 17.9503Z" fill="#FFBD54"/>
<path d="M11.3521 24.6588L11.3528 24.6585C12.7125 23.8382 13.0638 21.9166 12.1357 20.3744C11.2065 18.8329 9.34419 18.2446 7.98461 19.0629C7.48857 19.3612 7.12654 19.8062 6.91179 20.3261C6.53752 21.2322 6.61058 22.3658 7.20069 23.3473C8.12995 24.8886 9.99215 25.477 11.3521 24.6588Z" fill="#FFBD54"/>
</svg>
